Patient4_TMGait_0pt4_02_left_05_EMG.mot
version=1
nRows=36
nColumns=33
inDegrees=no
endheader
time	1LAddLong	2LGlutMax	3LGlutMed	4LIliopsoas	5LSemiMemb	6LBicFemLong	7LRecFem	8LVastMed	9LVastLat	10LGasMed	11LTibAnt	12lTibPost	13LPeroneusLong	14LSol	15LExtDigLong	16LFlexDigLong	17RAddLong	18RGlutMax	19RGlutMed	20RIliopsoas	21RSemiMemb	22RBicFemLong	23RRecFem	24RVastMed	25RVastLat	26RGasMed	27RTibAnt	28RTibPost	29RPeroneusLong	30RSol	31RExtDigLong	32RFlexDigLong
6.63	0.005798	0.28458	-0.001984	-0.012817	-0.005035	-0.015564	0.1236	0.010681	-0.25421	-0.032043	-0.01297	-0.002899	0.063171	-0.036011	-0.004883	0.015106	0.045166	-0.30258	-0.40131	-0.060272	0.07843	-0.050964	-0.036774	0.10269	-0.002441	0.003204	0.021667	-0.3392	0.034637	-0.09552	-0.000916	0.007019
6.631	0.004425	0.27878	-0.016327	0.010529	0	-0.008698	0.11353	0.011597	-0.25818	-0.009613	-0.044708	-0.000305	0.070496	-0.033417	0.02121	0.006714	0.019073	-0.21439	-0.049744	-0.099792	-0.010834	-0.043335	-0.42099	0.063934	0.12161	0.000763	0.035248	0.13123	0.09491	-0.16235	-0.003967	0.007324
6.632	0.00412	0.22614	-0.014343	0.030518	0.01297	-0.01358	0.11261	0.018463	-0.2536	-0.001373	-0.062256	-0.005341	0.038605	-0.02655	0.041199	0.011902	0.002441	-0.22003	0.1683	0.010071	0.020599	-0.040283	-0.36346	0.11581	0.20477	0	0.017853	0.12466	0.067596	-0.1741	-0.002899	0.000458
6.633	-0.001068	0.22247	-0.014648	0.019379	0.005035	-0.002594	0.09964	0.010529	-0.24109	-0.015259	-0.052643	-0.000763	0.036316	-0.051727	0.057831	0.014496	0.002441	-0.24262	0.13351	0.24536	0.038147	-0.05661	-0.18005	0.16556	0.27695	-0.007782	0.033875	0.038452	-0.15243	0.15961	-0.001831	-0.006409
6.634	0.00473	0.15579	-0.019989	0.01358	0.015717	-0.013123	0.11765	0.010681	-0.23773	-0.013885	-0.01236	-0.002289	-0.023804	-0.080109	-0.023193	0.011902	-0.020294	-0.18906	0.31479	0.25345	0.10407	-0.012817	-0.19898	0.13351	0.41412	-0.015411	0.024414	0.021057	-0.25833	0.11307	-0.002441	-0.00351
6.635	0.007935	0.15152	0.003052	-0.006561	0.028076	0.018921	0.10208	0.013123	-0.24582	-0.010223	0.051422	0.000153	-0.043182	-0.05127	0.121	0.010986	-0.010376	-0.24307	-0.02655	0.1326	0.051575	-0.034485	-0.27924	0.060425	0.31967	-0.006256	0.041351	0.011597	-0.071716	-0.13596	-0.007935	-0.00824
6.636	-0.002747	0.12512	0.001373	0.004425	0.025787	0.031281	0.084534	0.018921	-0.2475	-0.032806	0.095215	-0.005646	-0.085449	-0.043182	0.26871	0.007477	0.000305	-0.19516	-0.46951	0.059357	-0.00824	-0.044403	-0.20966	0.039215	0.14191	-0.001831	0.049438	0.001221	-0.16815	-0.46463	-0.003052	-0.011292
6.637	0.001373	0.070953	0.00351	0.011902	0.020294	0.037689	0.092468	0.009766	-0.2565	-0.041962	0.12131	0.002747	-0.025635	-0.022278	-0.1001	0.006409	0.025482	-0.19089	-0.32318	0.035706	-0.03891	-0.077362	-0.052795	0.035706	-0.001678	0.007935	0.043488	-0.00885	-0.21927	-0.4892	-0.005493	-0.011597
6.638	0.008392	0.087128	0.025177	0.002289	-0.008392	0.043335	0.099945	0.008392	-0.26291	-0.03952	0.11459	-0.001526	0.053406	-0.03418	-0.13825	0.00061	0.034943	-0.1152	0.62424	-0.007172	-0.02533	-0.097046	-0.081177	-0.09079	-0.018768	-0.019226	0.032501	-0.015564	-0.079803	0.099335	-0.002747	-0.013885
6.639	0.002289	0.092316	0.024567	-0.001831	-0.023956	0.016785	0.080566	0.007629	-0.26016	-0.051575	0.024109	-0.005646	0.09491	-0.011292	0.087433	0.010223	0.035553	-0.066071	1.2419	-0.052795	0.069427	-0.072479	-0.045471	-0.10452	0.020447	-0.005035	0.028687	-0.008087	0.75409	0.50171	-0.005951	-0.000916
6.64	0.006409	0.054932	0.031586	-0.016327	-0.006409	0.026245	0.09613	0.010376	-0.27359	-0.005341	-0.043945	0.000916	0.029602	0.015564	-0.20783	-0.016937	0.026398	-0.11963	0.90881	-0.028992	0.054779	-0.034943	0.020599	-0.085907	0.005188	0.001221	0.033722	0.006256	0.61645	0.25772	-0.004425	-0.007019
6.641	0	0.057678	0.007782	0.011444	-0.023804	0.038147	0.075836	0.008545	-0.28839	0.007629	-0.042725	-0.019379	0.037537	-0.034637	-0.24353	-0.036163	0.01297	-0.020294	0.54398	-0.047607	0.006104	0.034943	0.02655	0.024567	-0.047302	0.003815	0.050659	0.006866	0.30243	0.17014	-0.002899	-0.003967
6.642	0.005798	0.056152	0.016785	0.009613	0.007935	0.053864	0.079803	0.010986	-0.28015	-0.036011	-0.011902	-0.009766	-0.011902	-0.068054	-0.090485	-0.016937	0.008087	0.030365	0.45761	-0.062561	-0.23773	0.082092	0.047302	0.071259	-0.010376	0.003815	0.041809	0.000305	-0.039063	0.12421	0	-0.000916
6.643	0	0.07782	0.019073	0.010986	0.015869	0.040131	0.075836	0.011292	-0.25635	-0.10773	-0.064545	0.012817	-0.03418	-0.076141	0.018616	-0.016785	-0.012512	0.12848	0.36163	-0.021362	-0.16892	0.036774	0.029144	0.10819	0.019531	0.00946	0.039368	-0.013733	-0.48126	0.020294	-0.001984	-0.00061
6.644	-0.000458	0.054016	0.006256	0.008087	0.009308	0.028229	0.059967	0.006256	-0.24155	-0.10376	-0.079193	-0.009003	-0.00473	-0.079498	-0.077209	-0.003357	0.006256	0.11551	0.39948	0.007935	-0.14664	0.004883	0.016937	0.062866	0.001831	0.01358	0.02182	-0.009918	-0.31128	-0.005646	0.000153	-0.005035
6.645	0.00061	0.046844	0.013123	0.000458	0.00824	0.062103	0.087891	0.009918	-0.22858	-0.013123	-0.064392	-0.003357	0.061493	-0.051575	-0.045929	-0.004883	0.022736	0.095978	0.27588	-0.044403	-0.33218	0.042725	0.089569	-0.013123	-0.009308	0.014648	-0.091248	-0.007477	1.1554	-0.00351	-0.003967	-0.004425
6.646	-0.000458	0.046692	0.012512	0.003967	0.000763	0.052643	0.071716	0.011597	-0.22324	0.055389	-0.017853	0.00946	0.072632	-0.06073	0.042267	0.003052	0.009613	0.16052	0.088959	-0.093231	-0.26596	0.059509	0.058136	-0.013428	-0.007629	0.000305	-0.019836	-0.006714	0.072021	0.00885	-0.001678	0.006866
6.647	-0.000305	0.070343	0.020294	0.017548	-0.003815	0.050354	0.040588	0.008545	-0.21637	0.13748	-0.009766	0.002441	0.029602	-0.04364	0.029907	-0.007019	0.007019	0.22903	-0.14114	-0.16205	0.06485	0.030975	0.056305	0.053864	-0.019684	-0.007019	0.076294	-0.016632	-1.2991	0.001068	-0.00351	-0.002899
6.648	-0.002441	0.099792	0.022278	0.004883	-0.012054	0.064087	0.066681	0.009003	-0.215	0.12024	-0.012817	0.002441	0.032196	-0.036469	0.035706	-0.008545	0.000458	0.29709	-0.10605	-0.16632	0.38055	-0.10696	0.023651	0.072327	-0.007629	-0.011597	0.12878	-0.018616	-0.59052	0.012207	-0.000916	-0.001373
6.649	0.007019	0.072479	0.023193	0.012512	-0.014954	0.054016	0.049744	0.00351	-0.19104	0.096741	-0.003815	0.000153	0.029144	-0.009766	0.007324	-0.019226	-0.006256	0.36835	0.82291	-0.050659	0.14633	-0.13962	0.033569	0.085754	-0.001068	0	0.12756	-0.024719	0.11581	-0.006561	-0.002747	-0.003815
6.65	-0.004578	0.061035	0.014801	0.012665	-0.003662	0.049591	0.046844	0.007324	-0.17242	0.062256	-0.012817	-0.001526	0.025635	-0.002899	0.012054	-0.011597	0.000305	0.32532	0.61356	0.20035	0.049286	-0.080261	0.077209	0.064087	-0.021973	0.015869	0.08316	-0.028381	-0.37308	0.10498	0.000305	-0.010986
6.651	0.002747	0.063629	0.016937	0.019684	0.009613	0.04776	0.024109	0.010834	-0.16296	0.048828	-0.027466	0.000763	0.033417	-0.038605	0.066833	-0.009003	-0.012207	0.29312	0.27481	0.25681	0.057983	-0.054626	0.067139	0.018463	-0.02182	0.019684	0.004883	-0.032806	-1.4577	0.14633	-0.002136	0.00351
6.652	0.001831	0.019531	0.01236	0.015411	0.021057	0.065613	0.031128	0.008087	-0.12207	0.026093	0.023804	0.003662	0.010681	-0.019836	0.090485	-0.021362	-0.003204	0.25162	0.43915	0.17136	0.067749	-0.015869	0.11856	0.010529	-0.034943	0.007935	0.06012	-0.075378	-1.7067	0.22064	-0.004578	-0.00473
6.653	0.007782	-0.007782	0.008392	-0.001373	0.016632	0.066071	0.022278	0.005798	-0.07309	0.024719	0.008545	0.002594	0.015717	-0.032196	-0.010071	-0.011139	-0.014496	0.25497	0.39291	0.076141	0.086975	0.006866	0.080261	0.01236	-0.046234	0.009308	-0.005493	-0.098877	-0.20004	-0.13245	0.001221	-0.009308
6.654	0.005188	-0.013275	-0.009003	0.005646	0.015717	0.057678	0.006256	0.006866	-0.037689	0.013428	0.015564	0.003967	-0.014191	-0.024109	-0.016479	-0.018921	-0.012054	0.30746	0.46524	0.010223	0.045776	0.003662	0.097351	-0.023193	-0.080414	0.001373	-0.042572	0.015106	1.5923	-0.54535	-0.000458	-0.00824
6.655	0.00473	-0.007782	0.016479	0.006104	-0.000916	0.077667	0.008392	0.009308	-0.012054	-0.013275	0.020447	0.006256	-0.002441	0.002136	-0.016785	-0.014954	-0.016785	0.35812	0.45975	-0.002594	-0.092773	-0.005493	0.052338	-0.037689	-0.070343	-0.016174	-0.043335	0.13825	1.1089	-0.15701	-0.002136	-0.013123
6.656	0.003204	-0.013428	0.001526	0.0177	0.002747	0.075531	0.008392	0.011597	0.026245	-0.014038	0.008545	0.009308	0.027008	-0.031128	0.001373	-0.01236	-0.019226	0.38681	0.20813	0.041809	0.040283	-0.005951	-0.13489	-0.057678	0.067902	-0.016022	-0.002747	0.0914	0.56229	0.32303	-0.003052	-0.00351
6.657	-0.001984	-0.032196	-0.014191	0.010529	0.001221	0.085602	0.001984	0.007629	0.047302	-0.009003	0.017853	0.009308	0.045166	-0.029297	0.023041	-0.011749	-0.018463	0.36835	0.48843	0.023499	0.070648	0.061646	-0.25162	0.012665	0.14771	-0.011749	0.028229	0.038605	0.44464	0.30258	0.000153	-0.005188
6.658	-0.003357	-0.028839	0.000458	0.020447	-0.000153	0.052795	-0.001984	0.008545	0.061646	-0.005341	0.015106	0.009155	0.030212	-0.051727	0.028839	-0.016174	-0.00824	0.41122	0.81314	0.040131	0.002747	0.12817	0.023804	-0.034637	0.023956	0.000458	0.035553	0.023193	0.38711	0.023499	-0.003052	0.001373
6.659	0.002289	-0.058289	0.002136	0.010071	0.005493	0.042114	-0.009155	0.006866	0.091095	-0.001526	0.007172	0.00824	0.017853	-0.030212	0.003662	-0.005798	-0.007935	0.37079	0.75958	0.067291	-0.079651	0.18249	0.079193	-0.10696	-0.062866	-0.014038	0.023956	0.000916	-0.011444	-0.050507	0.000458	0.005188
6.66	0.002594	-0.028534	-0.03891	0.007172	0.008392	0.024414	-0.027466	0.009003	0.11169	-0.027466	0.026703	0.009308	0.031586	-0.04364	0.001373	0.005646	0.000458	0.37247	0.066071	0.048523	-0.10086	0.096283	-0.014343	-0.093536	-0.088501	-0.009918	0.013885	-0.007019	-0.10849	-0.20065	-0.002441	0.000763
6.661	0.00351	-0.059204	-0.053711	0.000153	0.019684	0.041351	-0.007172	0.005798	0.11643	-0.00412	0.063782	0.011139	0.026398	-0.034485	-0.018768	-0.016174	0.008698	0.45944	-0.052948	-0.021362	-0.048523	-0.031128	-0.11887	0.083618	0.005646	-0.032043	-0.003052	-0.012512	0.046082	-0.13397	-0.001831	0.001526
6.662	0.006409	-0.042419	-0.046082	0.005035	0.018616	0.045929	-0.021362	0.007172	0.12726	-0.009918	0.066376	0.00946	0.001831	-0.054779	-0.013733	-0.008087	0.002747	0.47012	-0.050201	-0.021973	-0.039063	-0.1059	-0.034485	0.065613	0.002441	-0.029602	-0.00412	-0.01297	0.009766	-0.004883	-0.00412	-0.00061
6.663	0.004578	-0.062714	-0.019989	0.009918	0.015717	0.04837	-0.011444	0.005341	0.13336	-0.017548	0.052795	0.004425	-0.004578	-0.059509	0.011292	-0.003662	0.006866	0.49515	-0.3093	0.010376	-0.074158	-0.082855	-0.048523	0.062561	-0.035095	-0.020905	0.031433	-0.010376	0.033112	-0.041046	-0.000916	0.000458
6.664	0.001831	-0.059967	-0.002136	-0.026855	0.01709	0.046997	-0.019989	0.006104	0.1445	-0.03418	-0.042877	0.006714	0.034637	-0.045776	0.083313	-0.007629	0.011749	0.55695	0.25559	-0.058289	-0.095825	-0.041656	-0.050201	0.14984	0.022736	-0.016785	0.042725	-0.006714	0.1297	-0.12405	-0.001831	-0.006714
6.665	0.002441	-0.072632	-0.024719	-0.007782	-0.017548	0.023193	-0.029755	0.004578	0.16632	-0.031738	-0.097656	0.007477	0.041504	-0.056915	0.23773	-0.009918	-0.000305	0.47073	0.34866	-0.053864	-0.06897	0.016022	0.044556	0.13657	0.068359	-0.001526	0.027924	-0.010071	0.177	-0.086823	-0.001221	0.00061
